<svg width="192" height="60" viewBox="0 0 192 60" fill="none" xmlns="http://www.w3.org/2000/svg">
<path fill-rule="evenodd" clip-rule="evenodd" d="M29.7946 60C46.2497 60 59.5892 46.5685 59.5892 30C59.5892 13.4315 46.2497 0 29.7946 0C13.3395 0 0 13.4315 0 30C0 46.5685 13.3395 60 29.7946 60ZM39.0895 13.9753C39.5419 12.3571 37.9823 11.4002 36.558 12.422L16.6747 26.6844C15.13 27.7924 15.373 30 17.0397 30H22.2755V29.9592H32.4798L24.1652 32.9131L20.4997 46.0248C20.0473 47.643 21.6068 48.5998 23.0312 47.578L42.9145 33.3157C44.4592 32.2077 44.2161 30 42.5495 30H34.6096L39.0895 13.9753Z" fill="#545658"/>
<path d="M182.631 43.4327C180.58 43.4327 178.814 43.0172 177.334 42.1862C175.862 41.3465 174.728 40.1605 173.931 38.6282C173.135 37.0873 172.737 35.2651 172.737 33.1615C172.737 31.1099 173.135 29.3093 173.931 27.7597C174.728 26.2102 175.849 25.0026 177.295 24.1369C178.749 23.2712 180.454 22.8384 182.411 22.8384C183.727 22.8384 184.951 23.0505 186.086 23.4746C187.228 23.8902 188.224 24.5178 189.072 25.3575C189.929 26.1972 190.596 27.2533 191.072 28.5258C191.548 29.7897 191.786 31.27 191.786 32.9667V34.486H174.944V31.0579H186.579C186.579 30.2615 186.406 29.556 186.06 28.9414C185.713 28.3267 185.233 27.8463 184.618 27.5C184.012 27.1451 183.307 26.9676 182.502 26.9676C181.662 26.9676 180.917 27.1624 180.268 27.552C179.628 27.9329 179.125 28.4479 178.762 29.0972C178.398 29.7378 178.212 30.452 178.204 31.2397V34.499C178.204 35.4859 178.385 36.3385 178.749 37.057C179.121 37.7756 179.645 38.3296 180.32 38.7191C180.995 39.1087 181.796 39.3035 182.722 39.3035C183.337 39.3035 183.9 39.2169 184.41 39.0438C184.921 38.8706 185.358 38.6109 185.722 38.2647C186.086 37.9184 186.363 37.4942 186.553 36.9921L191.669 37.3297C191.409 38.559 190.877 39.6324 190.072 40.55C189.276 41.459 188.245 42.1688 186.981 42.6796C185.726 43.1817 184.276 43.4327 182.631 43.4327Z" fill="#545658"/>
<path d="M169.111 16.4496V43.043H163.58V16.4496H169.111Z" fill="#545658"/>
<path d="M142.585 43.0431V39.7449L152.35 27.6558V27.513H142.923V23.098H159.012V26.6949L149.844 38.4854V38.6282H159.349V43.0431H142.585Z" fill="#545658"/>
<path d="M121.696 43.0431V39.7449L131.461 27.6558V27.513H122.033V23.098H138.122V26.6949L128.954 38.4854V38.6282H138.46V43.0431H121.696Z" fill="#545658"/>
<path d="M106.276 43.4197C105.003 43.4197 103.869 43.199 102.874 42.7575C101.878 42.3074 101.09 41.6451 100.51 40.7708C99.939 39.8878 99.6533 38.7884 99.6533 37.4726C99.6533 36.3645 99.8568 35.4339 100.264 34.6808C100.67 33.9276 101.225 33.3217 101.926 32.8629C102.627 32.4041 103.423 32.0578 104.315 31.8241C105.215 31.5903 106.159 31.4258 107.146 31.3306C108.306 31.2094 109.241 31.0969 109.951 30.993C110.66 30.8805 111.175 30.716 111.496 30.4996C111.816 30.2832 111.976 29.9629 111.976 29.5387V29.4608C111.976 28.6384 111.716 28.0021 111.197 27.552C110.686 27.1018 109.959 26.8767 109.016 26.8767C108.02 26.8767 107.228 27.0975 106.639 27.539C106.051 27.9718 105.661 28.5172 105.471 29.1751L100.355 28.7596C100.614 27.5476 101.125 26.5002 101.887 25.6172C102.649 24.7255 103.631 24.0417 104.834 23.5655C106.046 23.0808 107.449 22.8384 109.042 22.8384C110.15 22.8384 111.21 22.9682 112.223 23.2279C113.244 23.4876 114.149 23.8902 114.937 24.4355C115.733 24.9809 116.361 25.6821 116.82 26.5391C117.278 27.3875 117.508 28.4047 117.508 29.5906V43.0432H112.262V40.2773H112.106C111.786 40.9006 111.357 41.4503 110.821 41.9265C110.284 42.3939 109.639 42.7618 108.886 43.0302C108.133 43.2899 107.263 43.4197 106.276 43.4197ZM107.86 39.6021C108.674 39.6021 109.392 39.442 110.015 39.1217C110.639 38.7927 111.128 38.3512 111.483 37.7972C111.838 37.2432 112.015 36.6156 112.015 35.9144V33.7978C111.842 33.9103 111.604 34.0142 111.301 34.1094C111.007 34.196 110.673 34.2782 110.301 34.3561C109.929 34.4254 109.557 34.4903 109.184 34.5509C108.812 34.6029 108.475 34.6505 108.172 34.6938C107.522 34.789 106.955 34.9405 106.471 35.1482C105.986 35.356 105.609 35.6373 105.341 35.9923C105.072 36.3385 104.938 36.7714 104.938 37.2908C104.938 38.0439 105.211 38.6196 105.756 39.0178C106.31 39.4073 107.012 39.6021 107.86 39.6021Z" fill="#545658"/>
<path d="M83.5165 43.043H74.0894V16.4496H83.5945C86.2694 16.4496 88.5721 16.982 90.5025 18.0468C92.433 19.1029 93.9176 20.6221 94.9564 22.6045C96.0039 24.5869 96.5276 26.9588 96.5276 29.7203C96.5276 32.4905 96.0039 34.8711 94.9564 36.8621C93.9176 38.8532 92.4243 40.3811 90.4766 41.4459C88.5375 42.5107 86.2175 43.043 83.5165 43.043ZM79.7119 38.2256H83.2828C84.9449 38.2256 86.343 37.9312 87.477 37.3426C88.6197 36.7453 89.4767 35.8233 90.0481 34.5768C90.6281 33.3215 90.9181 31.7027 90.9181 29.7203C90.9181 27.7553 90.6281 26.1494 90.0481 24.9029C89.4767 23.6563 88.624 22.7387 87.49 22.15C86.356 21.5614 84.9579 21.2671 83.2958 21.2671H79.7119V38.2256Z" fill="#545658"/>
</svg>
