<svg width="192" height="60" viewBox="0 0 192 60" fill="none" xmlns="http://www.w3.org/2000/svg">
<path d="M45.6085 26.3325C44.7602 27.1905 44.1107 28.2259 43.706 29.3649C43.3013 30.5041 43.1516 31.7189 43.2673 32.9229L43.227 32.8824C43.3461 34.2996 43.1558 35.7257 42.6699 37.0616C42.184 38.3972 41.4141 39.6102 40.4138 40.6159C39.4134 41.6215 38.2067 42.3957 36.8779 42.8839C35.5493 43.3724 34.1305 43.5637 32.7209 43.444L32.7612 43.4845C31.0749 43.3267 29.3813 43.6955 27.911 44.5409C26.441 45.3862 25.2659 46.6667 24.5463 48.2079C23.8268 49.7492 23.5973 51.4759 23.8896 53.153C24.1822 54.83 24.9819 56.3755 26.18 57.5788C27.3781 58.7822 28.9162 59.5847 30.5845 59.877C32.2531 60.1695 33.9705 59.9373 35.503 59.2126C37.0355 58.4876 38.3081 57.3055 39.1477 55.8268C39.9872 54.348 40.3527 52.6452 40.1943 50.9501L40.2368 50.9906C40.1177 49.5735 40.3077 48.1472 40.7936 46.8114C41.2796 45.4757 42.0497 44.2628 43.05 43.257C44.0505 42.2515 45.2571 41.4772 46.5857 40.989C47.9145 40.5005 49.333 40.3092 50.7429 40.4289L50.7004 40.3884C52.0778 40.5129 53.4643 40.2858 54.7314 39.7283C55.9982 39.1707 57.1047 38.3006 57.9481 37.1988C58.7915 36.097 59.3447 34.7987 59.556 33.4248C59.7675 32.0507 59.6306 30.6454 59.1579 29.3386C58.6851 28.032 57.8919 26.8665 56.8518 25.95C55.8117 25.0336 54.5584 24.3959 53.2078 24.0962C51.8573 23.7965 50.4533 23.8442 49.126 24.2351C47.7988 24.6261 46.5913 25.3475 45.6152 26.3325H45.6085Z" fill="#545658"/>
<path d="M29.0974 38.1797L29.0549 38.1392C30.253 38.2605 31.4629 38.1127 32.5975 37.7063C33.7318 37.3 34.7623 36.6454 35.6141 35.7898C36.4658 34.9341 37.118 33.8986 37.5229 32.7585C37.928 31.6184 38.0759 30.4023 37.9562 29.1976L37.9987 29.2381C37.8796 27.8208 38.0699 26.3948 38.5556 25.0589C39.0415 23.7233 39.8116 22.5103 40.8119 21.5046C41.8124 20.499 43.019 19.7248 44.3476 19.2366C45.6764 18.748 47.095 18.5569 48.5048 18.6765L48.4623 18.636C50.1488 18.7953 51.8429 18.4276 53.3138 17.5832C54.785 16.7389 55.9609 15.4589 56.6816 13.9179C57.4023 12.377 57.6326 10.65 57.3412 8.97262C57.0498 7.2952 56.2508 5.74903 55.0529 4.54495C53.8552 3.3409 52.3171 2.53755 50.6486 2.24455C48.98 1.95153 47.2622 2.18308 45.7292 2.90763C44.1963 3.63216 42.9232 4.81444 42.0832 6.29318C41.2432 7.77189 40.8775 9.47509 41.0359 11.1704L40.9957 11.1277C41.115 12.545 40.9252 13.9713 40.4395 15.3072C39.9538 16.6431 39.1836 17.8563 38.1834 18.8621C37.1829 19.8677 35.976 20.6419 34.6472 21.1302C33.3182 21.6184 31.8994 21.8092 30.4895 21.6893L30.5298 21.7321C29.3317 21.6108 28.1215 21.7586 26.9872 22.165C25.8529 22.5711 24.8224 23.2258 23.9706 24.0815C23.1187 24.9372 22.4667 25.9727 22.0616 27.1128C21.6567 28.2528 21.5088 29.469 21.6285 30.6736L21.5882 30.6331C21.7069 32.0502 21.5164 33.4763 21.0305 34.8119C20.5443 36.1473 19.7744 37.3603 18.7741 38.3658C17.7738 39.3713 16.5673 40.1454 15.2388 40.6341C13.9103 41.1225 12.4918 41.314 11.0821 41.1948L11.1224 41.2353C9.43597 41.076 7.74172 41.4436 6.27076 42.288C4.79981 43.1325 3.62375 44.4123 2.90303 45.9533C2.18228 47.4944 1.95193 49.2213 2.24341 50.8987C2.53489 52.5761 3.33402 54.1223 4.53174 55.3263C5.72949 56.5305 7.26754 57.3337 8.93614 57.6267C10.6047 57.9196 12.3226 57.6881 13.8555 56.9636C15.3884 56.2391 16.6616 55.0569 17.5015 53.5782C18.3415 52.0993 18.7072 50.3962 18.5488 48.7008L18.5913 48.7413C18.4722 47.3241 18.6625 45.898 19.1484 44.5621C19.6341 43.2265 20.4042 42.0135 21.4045 41.0078C22.405 40.0022 23.6116 39.228 24.9402 38.7398C26.269 38.2513 27.6875 38.06 29.0974 38.1797Z" fill="#545658"/>
<path d="M14.0958 33.6625C14.9441 32.8048 15.5936 31.7694 15.9979 30.6302C16.4022 29.491 16.5514 28.276 16.4347 27.0722L16.4772 27.1127C16.3581 25.6952 16.5483 24.2685 17.0344 22.9324C17.5206 21.5963 18.2911 20.3831 19.292 19.3774C20.2929 18.3716 21.5 17.5977 22.8292 17.1095C24.1585 16.6214 25.5777 16.4308 26.9878 16.5511L26.9453 16.5106C28.6311 16.6694 30.3247 16.3015 31.795 15.4572C33.2653 14.613 34.4406 13.3333 35.161 11.7928C35.8813 10.2523 36.1114 8.52599 35.82 6.84921C35.5286 5.17242 34.7295 3.62684 33.5323 2.42321C32.3351 1.21958 30.7974 0.416503 29.1295 0.123505C27.4616 -0.169516 25.7443 0.0618317 24.212 0.785934C22.6795 1.51004 21.4066 2.69168 20.5669 4.16972C19.7269 5.64776 19.3609 7.35027 19.5189 9.04503L19.4787 9.00453C19.5977 10.4217 19.4075 11.8479 18.9216 13.1836C18.4357 14.5193 17.6658 15.7323 16.6654 16.738C15.665 17.7437 14.4583 18.5178 13.1297 19.0061C11.801 19.4946 10.3823 19.6858 8.97254 19.5661L9.01283 19.6066C7.63538 19.4824 6.24901 19.7099 4.98224 20.2677C3.71546 20.8255 2.60923 21.6958 1.76608 22.7979C0.922928 23.8997 0.370138 25.198 0.158897 26.5718C-0.0523221 27.9459 0.0848572 29.3513 0.557721 30.6576C1.03059 31.9642 1.82387 33.1295 2.86403 34.0457C3.90419 34.9622 5.15758 35.5996 6.50806 35.8993C7.85853 36.1988 9.26239 36.1508 10.5896 35.76C11.9167 35.369 13.1242 34.6476 14.1002 33.6625H14.0958Z" fill="#545658"/>
<path d="M182.054 43.4326C180.003 43.4326 178.237 43.0171 176.756 42.186C175.285 41.3463 174.151 40.1604 173.354 38.6281C172.558 37.0872 172.16 35.265 172.16 33.1614C172.16 31.1098 172.558 29.3092 173.354 27.7596C174.151 26.2101 175.272 25.0024 176.717 24.1368C178.172 23.2711 179.877 22.8383 181.834 22.8383C183.149 22.8383 184.374 23.0503 185.508 23.4745C186.651 23.89 187.647 24.5177 188.495 25.3574C189.352 26.1971 190.019 27.2532 190.495 28.5257C190.971 29.7896 191.209 31.2699 191.209 32.9666V34.4859H174.367V31.0578H186.002C186.002 30.2614 185.829 29.5559 185.482 28.9412C185.136 28.3266 184.656 27.8462 184.041 27.4999C183.435 27.145 182.73 26.9675 181.924 26.9675C181.085 26.9675 180.34 27.1623 179.691 27.5518C179.05 27.9327 178.548 28.4478 178.185 29.0971C177.821 29.7377 177.635 30.4518 177.626 31.2396V34.4989C177.626 35.4857 177.808 36.3384 178.172 37.0569C178.544 37.7754 179.068 38.3295 179.743 38.719C180.418 39.1086 181.219 39.3033 182.145 39.3033C182.76 39.3033 183.323 39.2168 183.833 39.0436C184.344 38.8705 184.781 38.6108 185.145 38.2645C185.508 37.9183 185.785 37.4941 185.976 36.992L191.092 37.3296C190.832 38.5589 190.3 39.6323 189.495 40.5499C188.698 41.4589 187.668 42.1687 186.404 42.6795C185.149 43.1816 183.699 43.4326 182.054 43.4326Z" fill="#545658"/>
<path d="M163.003 43.043V23.0979H168.534V43.043H163.003ZM165.782 20.5269C164.959 20.5269 164.254 20.2542 163.665 19.7088C163.085 19.1548 162.795 18.4925 162.795 17.7221C162.795 16.9603 163.085 16.3067 163.665 15.7613C164.254 15.2073 164.959 14.9303 165.782 14.9303C166.604 14.9303 167.305 15.2073 167.885 15.7613C168.474 16.3067 168.768 16.9603 168.768 17.7221C168.768 18.4925 168.474 19.1548 167.885 19.7088C167.305 20.2542 166.604 20.5269 165.782 20.5269Z" fill="#545658"/>
<path d="M146.628 23.0979L150.29 30.0709L154.043 23.0979H159.717L153.939 33.0704L159.873 43.043H154.225L150.29 36.1479L146.42 43.043H140.707L146.628 33.0704L140.915 23.0979H146.628Z" fill="#545658"/>
<path d="M125.631 23.0979L129.293 30.0709L133.046 23.0979H138.72L132.942 33.0704L138.876 43.043H133.227L129.293 36.1479L125.423 43.043H119.71L125.631 33.0704L119.918 23.0979H125.631Z" fill="#545658"/>
<path d="M108.309 43.4326C106.292 43.4326 104.548 43.0041 103.076 42.1471C101.613 41.2814 100.483 40.0781 99.6868 38.5372C98.8904 36.9877 98.4922 35.1914 98.4922 33.1484C98.4922 31.0881 98.8904 29.2875 99.6868 27.7466C100.483 26.1971 101.613 24.9938 103.076 24.1368C104.548 23.2711 106.292 22.8383 108.309 22.8383C110.326 22.8383 112.066 23.2711 113.529 24.1368C115.001 24.9938 116.135 26.1971 116.931 27.7466C117.727 29.2875 118.126 31.0881 118.126 33.1484C118.126 35.1914 117.727 36.9877 116.931 38.5372C116.135 40.0781 115.001 41.2814 113.529 42.1471C112.066 43.0041 110.326 43.4326 108.309 43.4326ZM108.335 39.1475C109.253 39.1475 110.019 38.8878 110.633 38.3684C111.248 37.8404 111.711 37.1218 112.023 36.2129C112.343 35.3039 112.503 34.2695 112.503 33.1095C112.503 31.9495 112.343 30.915 112.023 30.006C111.711 29.0971 111.248 28.3786 110.633 27.8505C110.019 27.3224 109.253 27.0584 108.335 27.0584C107.409 27.0584 106.63 27.3224 105.998 27.8505C105.374 28.3786 104.903 29.0971 104.582 30.006C104.271 30.915 104.115 31.9495 104.115 33.1095C104.115 34.2695 104.271 35.3039 104.582 36.2129C104.903 37.1218 105.374 37.8404 105.998 38.3684C106.63 38.8878 107.409 39.1475 108.335 39.1475Z" fill="#545658"/>
<path d="M82.2251 43.043H72.7979V16.4496H82.303C84.9779 16.4496 87.2806 16.982 89.2111 18.0468C91.1415 19.1029 92.6262 20.6221 93.665 22.6045C94.7124 24.5869 95.2362 26.9588 95.2362 29.7203C95.2362 32.4905 94.7124 34.8711 93.665 36.8621C92.6262 38.8532 91.1329 40.3811 89.1851 41.4459C87.246 42.5106 84.926 43.043 82.2251 43.043ZM78.4204 38.2256H81.9913C83.6534 38.2256 85.0515 37.9312 86.1855 37.3426C87.3282 36.7453 88.1852 35.8233 88.7566 34.5768C89.3366 33.3215 89.6266 31.7027 89.6266 29.7203C89.6266 27.7553 89.3366 26.1494 88.7566 24.9029C88.1852 23.6563 87.3325 22.7387 86.1985 22.15C85.0645 21.5614 83.6664 21.2671 82.0043 21.2671H78.4204V38.2256Z" fill="#545658"/>
</svg>
