<svg width="192" height="60" viewBox="0 0 192 60" fill="none" xmlns="http://www.w3.org/2000/svg">
<path d="M30.2331 60C46.6886 60 60.0276 46.569 60.0276 30V9C60.0276 6.61305 59.0859 4.32387 57.4096 2.63604C55.7333 0.948211 53.4598 0 51.0892 0H31.7228V13.161C31.7228 16.164 31.9045 19.275 33.4688 21.831C34.5886 23.6628 36.0866 25.2307 37.8612 26.4282C39.6358 27.6257 41.6455 28.4249 43.7538 28.7715L44.3244 28.8645C44.5596 28.9455 44.7638 29.0984 44.9084 29.3021C45.053 29.5057 45.1307 29.7497 45.1307 30C45.1307 30.2503 45.053 30.4943 44.9084 30.6979C44.7638 30.9016 44.5596 31.0545 44.3244 31.1355L43.7538 31.2285C40.6733 31.7352 37.8287 33.2033 35.6216 35.4257C33.4145 37.648 31.9564 40.5123 31.4532 43.614L31.3608 44.1885C31.2804 44.4253 31.1284 44.6309 30.9262 44.7765C30.724 44.9221 30.4817 45.0004 30.2331 45.0004C29.9845 45.0004 29.7421 44.9221 29.5399 44.7765C29.3377 44.6309 29.1858 44.4253 29.1053 44.1885L29.013 43.614C28.6687 41.4911 27.8749 39.4676 26.6856 37.6808C25.4963 35.894 23.9392 34.3856 22.12 33.258C19.5815 31.683 16.4918 31.5 13.5094 31.5H0.474301C1.25343 47.3715 14.2781 60 30.2331 60Z" fill="#545658"/>
<path d="M0.438477 28.5H13.5093C16.4918 28.5 19.5815 28.317 22.12 26.742C24.1043 25.5109 25.7747 23.829 26.9973 21.831C28.5615 19.275 28.7433 16.164 28.7433 13.161V0H9.37683C7.00623 0 4.73273 0.948211 3.05646 2.63604C1.38019 4.32387 0.438477 6.61305 0.438477 9V28.5Z" fill="#545658"/>
<path d="M185.761 43.0429V23.0978H191.293V43.0429H185.761ZM188.54 20.5267C187.718 20.5267 187.012 20.2541 186.424 19.7087C185.844 19.1547 185.554 18.4924 185.554 17.722C185.554 16.9602 185.844 16.3066 186.424 15.7612C187.012 15.2072 187.718 14.9302 188.54 14.9302C189.363 14.9302 190.064 15.2072 190.644 15.7612C191.233 16.3066 191.527 16.9602 191.527 17.722C191.527 18.4924 191.233 19.1547 190.644 19.7087C190.064 20.2541 189.363 20.5267 188.54 20.5267Z" fill="#545658"/>
<path d="M169.865 43.3675C168.35 43.3675 166.978 42.978 165.748 42.1989C164.528 41.4111 163.558 40.2555 162.84 38.7319C162.13 37.1996 161.775 35.3211 161.775 33.0963C161.775 30.811 162.143 28.9108 162.879 27.3959C163.614 25.8723 164.593 24.7339 165.813 23.9808C167.043 23.219 168.389 22.8381 169.852 22.8381C170.968 22.8381 171.899 23.0286 172.643 23.4095C173.397 23.7817 174.003 24.2492 174.461 24.8119C174.929 25.3659 175.284 25.9113 175.526 26.448H175.695V16.4495H181.214V43.0429H175.76V39.8486H175.526C175.266 40.4026 174.899 40.9523 174.422 41.4977C173.955 42.0344 173.345 42.4802 172.591 42.8352C171.847 43.1901 170.938 43.3675 169.865 43.3675ZM171.618 38.9656C172.509 38.9656 173.262 38.7232 173.877 38.2384C174.5 37.745 174.976 37.0568 175.305 36.1738C175.643 35.2908 175.812 34.2563 175.812 33.0704C175.812 31.8844 175.647 30.8543 175.318 29.9799C174.989 29.1056 174.513 28.4304 173.89 27.9542C173.267 27.4781 172.509 27.2401 171.618 27.2401C170.709 27.2401 169.943 27.4868 169.319 27.9802C168.696 28.4737 168.224 29.1575 167.904 30.0319C167.584 30.9062 167.423 31.919 167.423 33.0704C167.423 34.2304 167.584 35.2562 167.904 36.1478C168.233 37.0308 168.705 37.7234 169.319 38.2255C169.943 38.7189 170.709 38.9656 171.618 38.9656Z" fill="#545658"/>
<path d="M149.751 43.4324C147.699 43.4324 145.933 43.0168 144.453 42.1858C142.982 41.3461 141.847 40.1601 141.051 38.6279C140.255 37.087 139.856 35.2647 139.856 33.1612C139.856 31.1095 140.255 29.3089 141.051 27.7594C141.847 26.2098 142.969 25.0022 144.414 24.1365C145.869 23.2708 147.574 22.838 149.53 22.838C150.846 22.838 152.071 23.0501 153.205 23.4743C154.348 23.8898 155.343 24.5174 156.192 25.3571C157.049 26.1968 157.715 27.2529 158.191 28.5255C158.668 29.7894 158.906 31.2697 158.906 32.9664V34.4856H142.064V31.0576H153.699C153.699 30.2612 153.525 29.5556 153.179 28.941C152.833 28.3264 152.352 27.8459 151.738 27.4997C151.132 27.1447 150.426 26.9673 149.621 26.9673C148.782 26.9673 148.037 27.162 147.388 27.5516C146.747 27.9325 146.245 28.4476 145.882 29.0968C145.518 29.7374 145.332 30.4516 145.323 31.2394V34.4986C145.323 35.4855 145.505 36.3382 145.869 37.0567C146.241 37.7752 146.765 38.3292 147.44 38.7188C148.115 39.1083 148.916 39.3031 149.842 39.3031C150.457 39.3031 151.019 39.2165 151.53 39.0434C152.041 38.8703 152.478 38.6106 152.842 38.2643C153.205 37.918 153.482 37.4938 153.673 36.9918L158.789 37.3294C158.529 38.5586 157.997 39.6321 157.192 40.5497C156.395 41.4586 155.365 42.1685 154.101 42.6792C152.846 43.1813 151.396 43.4324 149.751 43.4324Z" fill="#545658"/>
<path d="M123.375 31.5122V43.0429H117.843V16.4495H123.219V26.6168H123.453C123.903 25.4395 124.63 24.5175 125.634 23.851C126.638 23.1757 127.898 22.8381 129.413 22.8381C130.798 22.8381 132.006 23.1411 133.036 23.7471C134.075 24.3444 134.88 25.2057 135.451 26.3311C136.031 27.4478 136.317 28.7853 136.308 30.3435V43.0429H130.776V31.3304C130.785 30.1011 130.473 29.1445 129.841 28.4607C129.218 27.7768 128.344 27.4348 127.218 27.4348C126.465 27.4348 125.799 27.595 125.219 27.9153C124.647 28.2356 124.197 28.7031 123.868 29.3177C123.548 29.9237 123.384 30.6551 123.375 31.5122Z" fill="#545658"/>
<path d="M102.32 43.4194C101.048 43.4194 99.9136 43.1986 98.9181 42.7571C97.9225 42.307 97.1348 41.6447 96.5548 40.7704C95.9834 39.8874 95.6978 38.788 95.6978 37.4722C95.6978 36.3641 95.9012 35.4335 96.3081 34.6804C96.7149 33.9273 97.2689 33.3213 97.9701 32.8625C98.6713 32.4037 99.4678 32.0574 100.359 31.8237C101.26 31.59 102.203 31.4255 103.19 31.3303C104.35 31.2091 105.285 31.0965 105.995 30.9926C106.705 30.8801 107.22 30.7156 107.54 30.4992C107.86 30.2828 108.021 29.9625 108.021 29.5383V29.4604C108.021 28.638 107.761 28.0017 107.241 27.5516C106.731 27.1014 106.004 26.8764 105.06 26.8764C104.064 26.8764 103.272 27.0971 102.684 27.5386C102.095 27.9715 101.706 28.5168 101.515 29.1747L96.3989 28.7592C96.6587 27.5473 97.1694 26.4998 97.9312 25.6168C98.693 24.7252 99.6755 24.0413 100.879 23.5652C102.091 23.0804 103.493 22.838 105.086 22.838C106.194 22.838 107.254 22.9679 108.267 23.2276C109.289 23.4873 110.193 23.8898 110.981 24.4352C111.778 24.9806 112.405 25.6817 112.864 26.5388C113.323 27.3871 113.552 28.4043 113.552 29.5903V43.0428H108.306V40.277H108.15C107.83 40.9003 107.402 41.45 106.865 41.9261C106.328 42.3936 105.683 42.7615 104.93 43.0298C104.177 43.2895 103.307 43.4194 102.32 43.4194ZM103.904 39.6018C104.718 39.6018 105.437 39.4416 106.06 39.1213C106.683 38.7924 107.172 38.3509 107.527 37.7968C107.882 37.2428 108.06 36.6152 108.06 35.914V33.7974C107.886 33.91 107.648 34.0138 107.345 34.1091C107.051 34.1956 106.718 34.2779 106.346 34.3558C105.973 34.425 105.601 34.49 105.229 34.5506C104.857 34.6025 104.519 34.6501 104.216 34.6934C103.567 34.7886 103 34.9401 102.515 35.1479C102.03 35.3556 101.654 35.637 101.385 35.9919C101.117 36.3382 100.983 36.771 100.983 37.2904C100.983 38.0435 101.255 38.6192 101.801 39.0174C102.355 39.407 103.056 39.6018 103.904 39.6018Z" fill="#545658"/>
<path d="M86.53 16.4495H92.0876V34.9922C92.0876 36.7062 91.7024 38.1952 90.9319 39.459C90.1701 40.7229 89.1097 41.6968 87.7506 42.3807C86.3915 43.0646 84.8116 43.4065 83.011 43.4065C81.4095 43.4065 79.9552 43.1252 78.648 42.5625C77.3495 41.9911 76.3194 41.1255 75.5576 39.9655C74.7958 38.7968 74.4192 37.3295 74.4279 35.5635H80.0245C80.0418 36.2647 80.1846 36.8663 80.453 37.3684C80.73 37.8619 81.1065 38.2428 81.5827 38.5111C82.0674 38.7708 82.6388 38.9007 83.2967 38.9007C83.9892 38.9007 84.5736 38.7535 85.0497 38.4592C85.5345 38.1562 85.9024 37.7147 86.1534 37.1347C86.4045 36.5547 86.53 35.8405 86.53 34.9922V16.4495Z" fill="#545658"/>
</svg>
