<svg width="616" height="414" viewBox="0 0 616 414" fill="none" xmlns="http://www.w3.org/2000/svg">
<path d="M109.5 0.5H0.5V74.25M109.5 0.5V413.5M109.5 0.5H215M109.5 413.5H0.5V327M109.5 413.5H215M215 413.5V0.5M215 413.5H320.5M215 0.5H320.5M320.5 0.5V413.5M320.5 0.5H423M320.5 413.5H423M423 413.5V0.5M423 413.5H519M423 0.5H519M519 0.5H615V74.25M519 0.5V413.5M519 413.5H615V327M615 327H0.5M615 327V234.5M0.5 327V234.5M0.5 234.5H615M0.5 234.5V148M615 234.5V148M615 148H0.5M615 148V74.25M0.5 148V74.25M0.5 74.25H615" stroke="#B5AEAE"/>
</svg>
