<svg width="193" height="60" viewBox="0 0 193 60" fill="none" xmlns="http://www.w3.org/2000/svg">
<path d="M57.5229 18.1213C56.3974 15.547 54.9078 13.1479 53.0996 10.9977C50.4268 7.72427 47.0912 5.05414 43.3123 3.1631C39.5335 1.27207 35.397 0.202981 31.1754 0.0261967C26.9538 -0.150588 22.7425 0.568938 18.8188 2.13745C14.8953 3.70595 11.3482 6.08786 8.41118 9.1264C5.47414 12.1649 3.21371 15.7912 1.77867 19.7666C0.343634 23.7418 -0.2335 27.9762 0.0852894 32.1906C0.404101 36.4052 1.61156 40.5044 3.62824 44.2184C5.64492 47.9326 8.42509 51.1774 11.7858 53.7392C13.9421 55.4159 16.3249 56.7789 18.8631 57.7877C22.4216 59.2465 26.2303 59.9978 30.0762 60C38.0147 59.9825 45.6224 56.8172 51.2318 51.198C56.8411 45.5787 59.9942 37.9642 60 30.0234C60.0057 25.9274 59.1624 21.8747 57.5229 18.1213ZM30.0541 6.10852C33.5078 6.10817 36.9197 6.86322 40.0508 8.32081C39.2873 8.65082 38.4845 8.88132 37.6622 9.00665C34.9564 9.39842 32.45 10.655 30.5167 12.5887C28.5835 14.5225 27.3273 17.0297 26.9356 19.7363C26.7638 21.2541 26.0735 22.6662 24.9816 23.7343C23.8897 24.8024 22.463 25.4608 20.942 25.5988C18.2363 25.9906 15.7297 27.2472 13.7965 29.181C11.8633 31.1148 10.6071 33.6219 10.2155 36.3285C10.0829 37.7718 9.46725 39.1281 8.46826 40.1779C6.7446 36.5349 5.9703 32.5147 6.21739 28.4919C6.46447 24.469 7.72492 20.5741 9.88145 17.1693C12.038 13.7648 15.0205 10.9612 18.5514 9.01956C22.0823 7.0779 26.047 6.06129 30.0762 6.06427L30.0541 6.10852ZM11.7636 45.5095C12.029 45.2661 12.2944 45.0449 12.5598 44.7794C14.5274 42.8713 15.7904 40.3524 16.1427 37.6337C16.2856 36.1055 16.9677 34.6781 18.0669 33.6073C19.1247 32.5061 20.5483 31.8293 22.07 31.7048C24.7757 31.313 27.2822 30.0564 29.2154 28.1226C31.1486 26.1889 32.4048 23.6817 32.7965 20.9751C32.8923 19.3768 33.5779 17.8709 34.7207 16.7497C35.8046 15.6697 37.2417 15.0177 38.768 14.9134C41.2537 14.5714 43.572 13.466 45.403 11.7499C47.4879 13.4801 49.2542 15.5614 50.6225 17.9001C50.5385 18.0136 50.442 18.1175 50.335 18.2098C49.2794 19.3208 47.8575 20.0124 46.3319 20.1566C43.6233 20.5415 41.113 21.7959 39.1785 23.7308C37.2442 25.6659 35.9902 28.1768 35.6053 30.8862C35.4494 32.4092 34.772 33.8314 33.6878 34.9119C32.6034 35.9926 31.1791 36.665 29.656 36.8152C26.9423 37.2039 24.4265 38.458 22.482 40.3909C20.5377 42.324 19.2685 44.8327 18.8631 47.5448C18.7441 48.6259 18.3727 49.6642 17.7793 50.5756C15.5102 49.2279 13.4779 47.5165 11.7636 45.5095ZM30.0541 54.0489C27.8099 54.0514 25.5763 53.7385 23.4191 53.1198C24.1571 51.7437 24.6368 50.244 24.8345 48.6952C24.9896 47.1756 25.6639 45.7559 26.7436 44.6759C27.8234 43.5958 29.2426 42.9213 30.7618 42.7662C33.4715 42.3789 35.9831 41.1243 37.9207 39.1901C39.8581 37.2561 41.1177 34.7462 41.5105 32.0366C41.6655 30.517 42.3398 29.0974 43.4196 28.0173C44.4993 26.9373 45.9185 26.2628 47.4377 26.1077C49.4769 25.8424 51.4205 25.0829 53.0996 23.8954C54.032 27.4304 54.1424 31.132 53.4225 34.7164C52.7026 38.3007 51.1712 41.6727 48.9463 44.5732C46.7214 47.4736 43.8619 49.8259 40.5869 51.4493C37.3121 53.0726 33.7091 53.9242 30.0541 53.9383V54.0489Z" fill="#545658"/>
<path d="M183.093 44.0286C181.062 44.0286 179.306 43.5971 177.824 42.7342C176.351 41.8626 175.213 40.651 174.411 39.0995C173.609 37.5392 173.208 35.7306 173.208 33.6735C173.208 31.599 173.609 29.786 174.411 28.2344C175.213 26.6742 176.351 25.4626 177.824 24.5997C179.306 23.7281 181.062 23.2922 183.093 23.2922C185.124 23.2922 186.876 23.7281 188.349 24.5997C189.831 25.4626 190.973 26.6742 191.774 28.2344C192.576 29.786 192.977 31.599 192.977 33.6735C192.977 35.7306 192.576 37.5392 191.774 39.0995C190.973 40.651 189.831 41.8626 188.349 42.7342C186.876 43.5971 185.124 44.0286 183.093 44.0286ZM183.119 39.714C184.043 39.714 184.814 39.4525 185.433 38.9295C186.052 38.3978 186.518 37.6743 186.832 36.7591C187.155 35.8439 187.316 34.8023 187.316 33.6343C187.316 32.4663 187.155 31.4247 186.832 30.5094C186.518 29.5942 186.052 28.8707 185.433 28.339C184.814 27.8073 184.043 27.5415 183.119 27.5415C182.186 27.5415 181.402 27.8073 180.766 28.339C180.138 28.8707 179.663 29.5942 179.341 30.5094C179.027 31.4247 178.87 32.4663 178.87 33.6343C178.87 34.8023 179.027 35.8439 179.341 36.7591C179.663 37.6743 180.138 38.3978 180.766 38.9295C181.402 39.4525 182.186 39.714 183.119 39.714Z" fill="#545658"/>
<path d="M156.686 32.0261V43.6364H151.116V23.5537H156.424V27.097H156.659C157.104 25.929 157.849 25.005 158.895 24.3251C159.941 23.6365 161.209 23.2922 162.7 23.2922C164.094 23.2922 165.31 23.5973 166.348 24.2075C167.385 24.8176 168.191 25.6893 168.766 26.8224C169.342 27.9468 169.629 29.2891 169.629 30.8494V43.6364H164.06V31.843C164.068 30.614 163.755 29.6552 163.118 28.9666C162.482 28.2693 161.606 27.9207 160.49 27.9207C159.741 27.9207 159.078 28.0819 158.503 28.4044C157.936 28.7269 157.492 29.1976 157.169 29.8165C156.855 30.4266 156.694 31.1632 156.686 32.0261Z" fill="#545658"/>
<path d="M138.263 44.0286C136.197 44.0286 134.419 43.6102 132.929 42.7734C131.447 41.928 130.305 40.7338 129.503 39.191C128.701 37.6395 128.3 35.8047 128.3 33.6866C128.3 31.6208 128.701 29.8078 129.503 28.2475C130.305 26.6873 131.434 25.4713 132.889 24.5997C134.354 23.7281 136.071 23.2922 138.041 23.2922C139.366 23.2922 140.599 23.5058 141.741 23.9329C142.892 24.3513 143.894 24.9832 144.748 25.8287C145.611 26.6742 146.282 27.7376 146.762 29.0189C147.241 30.2915 147.481 31.782 147.481 33.4905V35.0202H130.523V31.5685H142.238C142.238 30.7666 142.064 30.0562 141.715 29.4373C141.366 28.8185 140.882 28.3347 140.264 27.986C139.653 27.6287 138.943 27.45 138.132 27.45C137.287 27.45 136.537 27.6461 135.884 28.0383C135.239 28.4219 134.733 28.9405 134.367 29.5942C134.001 30.2392 133.813 30.9583 133.805 31.7515V35.0333C133.805 36.0269 133.988 36.8855 134.354 37.609C134.729 38.3324 135.256 38.8903 135.936 39.2825C136.616 39.6748 137.422 39.8709 138.355 39.8709C138.974 39.8709 139.54 39.7837 140.054 39.6094C140.569 39.4351 141.009 39.1736 141.375 38.8249C141.741 38.4762 142.02 38.0491 142.212 37.5436L147.363 37.8835C147.102 39.1213 146.566 40.2021 145.755 41.126C144.953 42.0413 143.916 42.756 142.643 43.2703C141.379 43.7758 139.919 44.0286 138.263 44.0286Z" fill="#545658"/>
<path d="M113.343 23.5537L117.03 30.5748L120.809 23.5537H126.522L120.704 33.595L126.679 43.6364H120.992L117.03 36.6937L113.134 43.6364H107.381L113.343 33.595L107.59 23.5537H113.343Z" fill="#545658"/>
<path d="M98.6574 43.6363V23.5537H104.227V43.6363H98.6574ZM101.455 20.9649C100.627 20.9649 99.917 20.6903 99.3242 20.1412C98.7402 19.5833 98.4482 18.9165 98.4482 18.1408C98.4482 17.3737 98.7402 16.7156 99.3242 16.1665C99.917 15.6086 100.627 15.3297 101.455 15.3297C102.283 15.3297 102.989 15.6086 103.573 16.1665C104.166 16.7156 104.463 17.3737 104.463 18.1408C104.463 18.9165 104.166 19.5833 103.573 20.1412C102.989 20.6903 102.283 20.9649 101.455 20.9649Z" fill="#545658"/>
<path d="M74.5996 43.6364V16.8595H85.1639C87.1861 16.8595 88.912 17.2212 90.3415 17.9447C91.7797 18.6594 92.8736 19.6749 93.6232 20.9911C94.3815 22.2985 94.7607 23.837 94.7607 25.6064C94.7607 27.3846 94.3772 28.9143 93.6101 30.1956C92.8431 31.4682 91.7317 32.4445 90.2761 33.1243C88.8292 33.8042 87.0772 34.1442 85.0201 34.1442H77.9467V29.5942H84.1049C85.1857 29.5942 86.0835 29.446 86.7982 29.1497C87.513 28.8533 88.0447 28.4088 88.3934 27.816C88.7507 27.2233 88.9294 26.4868 88.9294 25.6064C88.9294 24.7174 88.7507 23.9677 88.3934 23.3576C88.0447 22.7474 87.5086 22.2855 86.7852 21.9717C86.0704 21.6492 85.1683 21.4879 84.0787 21.4879H80.2609V43.6364H74.5996ZM89.0602 31.4508L95.7152 43.6364H89.4655L82.9543 31.4508H89.0602Z" fill="#545658"/>
</svg>
