<svg width="193" height="60" viewBox="0 0 193 60" fill="none" xmlns="http://www.w3.org/2000/svg">
<path d="M30.6406 42.0016C24.0585 42.0016 18.7227 36.629 18.7227 30.0016C18.7227 23.3742 24.0585 18.0016 30.6406 18.0016C37.2226 18.0016 42.5585 23.3742 42.5585 30.0016C42.5585 36.629 37.2226 42.0016 30.6406 42.0016Z" fill="#545658"/>
<path d="M7.55302 34.0992C4.09931 34.7124 1.73198 38.0716 3.05775 41.3408C4.90868 45.9048 7.8616 49.9712 11.6898 53.1488C17.164 57.6922 24.0684 60.12 31.1615 59.9954C38.2547 59.8708 45.0709 57.2018 50.3843 52.4686C54.0999 49.1586 56.9102 44.9908 58.6019 40.3646C59.8136 37.0508 57.3311 33.7768 53.8582 33.2854C50.3855 32.794 47.2674 35.3392 45.552 38.4192C44.6222 40.0886 43.4151 41.6032 41.9691 42.8914C38.9205 45.6072 35.0096 47.1384 30.9401 47.21C26.8703 47.2814 22.9088 45.8886 19.768 43.2816C18.2781 42.045 17.0194 40.5738 16.0322 38.938C14.2112 35.9202 11.0067 33.486 7.55302 34.0992Z" fill="#545658"/>
<path d="M60.2058 33.749C60.3579 32.5208 60.4362 31.2696 60.4362 30C60.4362 13.4315 47.0967 0 30.6414 0C14.1863 0 0.84668 13.4315 0.84668 30C0.84668 31.6294 0.975691 33.2284 1.224 34.7874C2.59253 32.901 4.72846 31.5544 7.03557 31.1448C9.53175 30.7016 11.8004 31.3112 13.7186 32.4506C13.6052 31.6502 13.5466 30.832 13.5466 30C13.5466 20.4938 21.2003 12.7874 30.6414 12.7874C40.0826 12.7874 47.7363 20.4938 47.7363 30C47.7363 30.6268 47.7029 31.2458 47.6382 31.8552C49.5158 30.6486 51.7624 29.9592 54.2729 30.3146C56.5921 30.6428 58.7727 31.9128 60.2058 33.749Z" fill="#545658"/>
<path d="M183.586 43.4326C181.534 43.4326 179.768 43.0171 178.288 42.186C176.816 41.3463 175.682 40.1604 174.886 38.6281C174.089 37.0872 173.691 35.265 173.691 33.1614C173.691 31.1098 174.089 29.3092 174.886 27.7596C175.682 26.21 176.803 25.0024 178.249 24.1368C179.703 23.2711 181.408 22.8383 183.365 22.8383C184.681 22.8383 185.906 23.0503 187.04 23.4745C188.182 23.89 189.178 24.5177 190.026 25.3574C190.883 26.1971 191.55 27.2532 192.026 28.5257C192.502 29.7896 192.74 31.2699 192.74 32.9666V34.4859H175.898V31.0578H187.533C187.533 30.2614 187.36 29.5559 187.014 28.9412C186.667 28.3266 186.187 27.8462 185.572 27.4999C184.966 27.145 184.261 26.9675 183.456 26.9675C182.616 26.9675 181.872 27.1623 181.222 27.5518C180.582 27.9327 180.08 28.4478 179.716 29.0971C179.352 29.7377 179.166 30.4518 179.158 31.2396V34.4989C179.158 35.4857 179.339 36.3384 179.703 37.0569C180.075 37.7754 180.599 38.3295 181.274 38.719C181.949 39.1086 182.75 39.3033 183.676 39.3033C184.291 39.3033 184.854 39.2168 185.365 39.0436C185.875 38.8705 186.312 38.6108 186.676 38.2645C187.04 37.9183 187.317 37.4941 187.507 36.992L192.623 37.3296C192.364 38.5589 191.831 39.6323 191.026 40.5499C190.23 41.4589 189.199 42.1687 187.936 42.6795C186.68 43.1815 185.23 43.4326 183.586 43.4326Z" fill="#545658"/>
<path d="M170.065 16.4496V43.043H164.534V16.4496H170.065Z" fill="#545658"/>
<path d="M154.571 43.043V23.0979H160.102V43.043H154.571ZM157.349 20.5269C156.527 20.5269 155.821 20.2542 155.233 19.7088C154.653 19.1548 154.363 18.4925 154.363 17.7221C154.363 16.9603 154.653 16.3067 155.233 15.7613C155.821 15.2073 156.527 14.9303 157.349 14.9303C158.172 14.9303 158.873 15.2073 159.453 15.7613C160.042 16.3067 160.336 16.9603 160.336 17.7221C160.336 18.4925 160.042 19.1548 159.453 19.7088C158.873 20.2542 158.172 20.5269 157.349 20.5269Z" fill="#545658"/>
<path d="M121.219 43.043V23.098H126.491V26.6169H126.724C127.14 25.4483 127.833 24.5263 128.802 23.8511C129.772 23.1759 130.932 22.8383 132.282 22.8383C133.65 22.8383 134.814 23.1802 135.775 23.8641C136.736 24.5393 137.377 25.4569 137.697 26.6169H137.905C138.311 25.4742 139.047 24.5609 140.112 23.8771C141.186 23.1845 142.454 22.8383 143.917 22.8383C145.778 22.8383 147.289 23.4312 148.449 24.6172C149.617 25.7945 150.202 27.4653 150.202 29.6295V43.043H144.683V30.7202C144.683 29.6121 144.389 28.7811 143.8 28.2271C143.211 27.673 142.475 27.396 141.592 27.396C140.588 27.396 139.805 27.7163 139.242 28.3569C138.679 28.9889 138.398 29.8242 138.398 30.863V43.043H133.035V30.6033C133.035 29.6251 132.754 28.846 132.191 28.266C131.637 27.686 130.906 27.396 129.997 27.396C129.382 27.396 128.828 27.5518 128.335 27.8635C127.85 28.1665 127.465 28.595 127.179 29.149C126.893 29.6944 126.75 30.335 126.75 31.0708V43.043H121.219Z" fill="#545658"/>
<path d="M107.805 43.4326C105.788 43.4326 104.043 43.0041 102.572 42.1471C101.109 41.2814 99.9788 40.0781 99.1824 38.5372C98.386 36.9877 97.9878 35.1914 97.9878 33.1484C97.9878 31.0881 98.386 29.2875 99.1824 27.7466C99.9788 26.1971 101.109 24.9938 102.572 24.1368C104.043 23.2711 105.788 22.8383 107.805 22.8383C109.822 22.8383 111.562 23.2711 113.025 24.1368C114.496 24.9938 115.63 26.1971 116.427 27.7466C117.223 29.2875 117.621 31.0881 117.621 33.1484C117.621 35.1914 117.223 36.9877 116.427 38.5372C115.63 40.0781 114.496 41.2814 113.025 42.1471C111.562 43.0041 109.822 43.4326 107.805 43.4326ZM107.831 39.1475C108.748 39.1475 109.514 38.8878 110.129 38.3684C110.744 37.8404 111.207 37.1218 111.518 36.2129C111.839 35.3039 111.999 34.2695 111.999 33.1095C111.999 31.9495 111.839 30.915 111.518 30.006C111.207 29.0971 110.744 28.3786 110.129 27.8505C109.514 27.3224 108.748 27.0584 107.831 27.0584C106.904 27.0584 106.125 27.3224 105.493 27.8505C104.87 28.3786 104.398 29.0971 104.078 30.006C103.766 30.915 103.61 31.9495 103.61 33.1095C103.61 34.2695 103.766 35.3039 104.078 36.2129C104.398 37.1218 104.87 37.8404 105.493 38.3684C106.125 38.8878 106.904 39.1475 107.831 39.1475Z" fill="#545658"/>
<path d="M89.3626 24.0979C89.2587 23.0504 88.8129 22.2367 88.0251 21.6567C87.2373 21.0767 86.1682 20.7867 84.8178 20.7867C83.9002 20.7867 83.1254 20.9165 82.4935 21.1762C81.8615 21.4273 81.3767 21.7779 81.0391 22.228C80.7102 22.6782 80.5457 23.1889 80.5457 23.7602C80.5284 24.2364 80.6279 24.6519 80.8443 25.0068C81.0694 25.3617 81.3767 25.669 81.7663 25.9287C82.1558 26.1798 82.606 26.4005 83.1167 26.591C83.6275 26.7728 84.1729 26.9286 84.7529 27.0584L87.1421 27.6298C88.3021 27.8895 89.3669 28.2358 90.3365 28.6686C91.306 29.1014 92.1457 29.6338 92.8556 30.2658C93.5654 30.8977 94.1151 31.6422 94.5047 32.4992C94.9029 33.3562 95.1063 34.3388 95.115 35.4468C95.1063 37.0743 94.6908 38.4853 93.8684 39.6799C93.0547 40.8659 91.8774 41.7879 90.3365 42.4458C88.8042 43.095 86.956 43.4196 84.7918 43.4196C82.6449 43.4196 80.7751 43.0907 79.1823 42.4328C77.5981 41.7749 76.3602 40.801 75.4685 39.5111C74.5855 38.2126 74.1224 36.6068 74.0791 34.6937H79.5199C79.5805 35.5853 79.8358 36.3298 80.286 36.9271C80.7448 37.5158 81.3551 37.9616 82.1169 38.2646C82.8873 38.5589 83.7573 38.7061 84.7269 38.7061C85.6791 38.7061 86.5059 38.5676 87.207 38.2905C87.9169 38.0135 88.4666 37.6283 88.8562 37.1349C89.2457 36.6414 89.4405 36.0744 89.4405 35.4338C89.4405 34.8365 89.263 34.3344 88.9081 33.9276C88.5618 33.5207 88.0511 33.1744 87.3759 32.8888C86.7093 32.6031 85.8912 32.3434 84.9217 32.1096L82.026 31.3825C79.7839 30.8371 78.0136 29.9844 76.7151 28.8244C75.4166 27.6644 74.7716 26.1019 74.7803 24.1368C74.7716 22.5267 75.2001 21.1199 76.0658 19.9167C76.9402 18.7134 78.1391 17.7741 79.6627 17.0989C81.1863 16.4237 82.9176 16.0861 84.8567 16.0861C86.8305 16.0861 88.5532 16.4237 90.0248 17.0989C91.5051 17.7741 92.6565 18.7134 93.4789 19.9167C94.3012 21.1199 94.7254 22.5137 94.7514 24.0979H89.3626Z" fill="#545658"/>
</svg>
