<svg width="194" height="60" viewBox="0 0 194 60" fill="none" xmlns="http://www.w3.org/2000/svg">
<path d="M30.3219 0C13.8668 0 0.527344 13.4314 0.527344 30C16.9824 30 30.3219 16.5686 30.3219 0Z" fill="#545658"/>
<path d="M30.3223 60C46.7773 60 60.1168 46.5686 60.1168 30C43.6617 30 30.3223 43.4314 30.3223 60Z" fill="#545658"/>
<path d="M30.3223 0C46.7773 0 60.1168 13.4314 60.1168 30C43.6617 30 30.3223 16.5686 30.3223 0Z" fill="#545658"/>
<path d="M30.3219 60C13.8668 60 0.527342 46.5686 0.527344 30C16.9824 30 30.3219 43.4314 30.3219 60Z" fill="#545658"/>
<path d="M71.6226 43.0429V39.7058L84.8934 21.0851H71.5967V16.4495H91.9573V19.7866L78.6736 38.4072H91.9833V43.0429H71.6226Z" fill="#545658"/>
<path d="M105.283 43.4325C103.232 43.4325 101.466 43.017 99.9853 42.1859C98.5137 41.3462 97.3796 40.1602 96.5832 38.628C95.7868 37.0871 95.3886 35.2649 95.3886 33.1613C95.3886 31.1096 95.7868 29.309 96.5832 27.7595C97.3796 26.2099 98.5007 25.0023 99.9464 24.1366C101.401 23.271 103.106 22.8381 105.062 22.8381C106.378 22.8381 107.603 23.0502 108.737 23.4744C109.88 23.8899 110.875 24.5175 111.724 25.3572C112.581 26.1969 113.247 27.2531 113.724 28.5256C114.2 29.7895 114.438 31.2698 114.438 32.9665V34.4857H97.5961V31.0577H109.231C109.231 30.2613 109.058 29.5557 108.711 28.9411C108.365 28.3265 107.885 27.846 107.27 27.4998C106.664 27.1448 105.958 26.9674 105.153 26.9674C104.314 26.9674 103.569 27.1622 102.92 27.5517C102.279 27.9326 101.777 28.4477 101.414 29.0969C101.05 29.7375 100.864 30.4517 100.855 31.2395V34.4987C100.855 35.4856 101.037 36.3383 101.401 37.0568C101.773 37.7753 102.297 38.3293 102.972 38.7189C103.647 39.1084 104.448 39.3032 105.374 39.3032C105.989 39.3032 106.551 39.2166 107.062 39.0435C107.573 38.8704 108.01 38.6107 108.374 38.2644C108.737 37.9181 109.014 37.494 109.205 36.9919L114.321 37.3295C114.061 38.5587 113.529 39.6322 112.724 40.5498C111.927 41.4587 110.897 42.1686 109.633 42.6793C108.378 43.1814 106.928 43.4325 105.283 43.4325Z" fill="#545658"/>
<path d="M134.643 28.7853L129.578 29.0969C129.492 28.6641 129.306 28.2745 129.02 27.9283C128.734 27.5734 128.358 27.292 127.89 27.0842C127.431 26.8678 126.882 26.7596 126.241 26.7596C125.384 26.7596 124.661 26.9414 124.073 27.305C123.484 27.6599 123.19 28.136 123.19 28.7334C123.19 29.2095 123.38 29.612 123.761 29.941C124.142 30.2699 124.795 30.534 125.722 30.7331L129.332 31.4602C131.271 31.8584 132.716 32.499 133.669 33.382C134.621 34.265 135.097 35.425 135.097 36.862C135.097 38.1692 134.712 39.3162 133.941 40.3031C133.18 41.2899 132.132 42.0604 130.799 42.6144C129.474 43.1598 127.947 43.4325 126.215 43.4325C123.575 43.4325 121.471 42.8828 119.904 41.7834C118.346 40.6753 117.433 39.169 117.165 37.2646L122.605 36.9789C122.77 37.784 123.168 38.3986 123.8 38.8228C124.432 39.2383 125.241 39.4461 126.228 39.4461C127.198 39.4461 127.977 39.2599 128.565 38.8877C129.163 38.5068 129.466 38.0177 129.474 37.4204C129.466 36.9183 129.254 36.5071 128.838 36.1868C128.423 35.8578 127.782 35.6068 126.916 35.4337L123.462 34.7455C121.515 34.3559 120.065 33.6807 119.112 32.7198C118.169 31.7589 117.697 30.534 117.697 29.045C117.697 27.7638 118.043 26.6601 118.736 25.7338C119.437 24.8075 120.42 24.0934 121.683 23.5913C122.956 23.0892 124.445 22.8381 126.15 22.8381C128.669 22.8381 130.652 23.3705 132.097 24.4353C133.552 25.5001 134.4 26.9501 134.643 28.7853Z" fill="#545658"/>
<path d="M149.189 23.0978V27.2531H137.178V23.0978H149.189ZM139.905 18.3193H145.436V36.914C145.436 37.4247 145.514 37.8229 145.67 38.1086C145.826 38.3856 146.042 38.5804 146.319 38.6929C146.605 38.8055 146.934 38.8617 147.306 38.8617C147.566 38.8617 147.826 38.8401 148.085 38.7968C148.345 38.7449 148.544 38.7059 148.683 38.6799L149.553 42.7962C149.276 42.8828 148.886 42.9823 148.384 43.0949C147.882 43.2161 147.272 43.2896 146.553 43.3156C145.22 43.3675 144.051 43.1901 143.047 42.7832C142.052 42.3764 141.277 41.7444 140.723 40.8874C140.169 40.0304 139.896 38.9483 139.905 37.6411V18.3193Z" fill="#545658"/>
<path d="M158.324 31.5122V43.0429H152.792V23.0978H158.064V26.6168H158.298C158.74 25.4568 159.48 24.5392 160.519 23.8639C161.557 23.1801 162.817 22.8381 164.297 22.8381C165.682 22.8381 166.89 23.1411 167.92 23.7471C168.95 24.3531 169.751 25.2187 170.322 26.3441C170.894 27.4608 171.179 28.794 171.179 30.3435V43.0429H165.648V31.3304C165.656 30.1098 165.345 29.1575 164.713 28.4737C164.081 27.7811 163.211 27.4348 162.103 27.4348C161.358 27.4348 160.7 27.595 160.129 27.9153C159.566 28.2356 159.125 28.7031 158.805 29.3177C158.493 29.9237 158.333 30.6551 158.324 31.5122Z" fill="#545658"/>
<path d="M178.24 50.5223C177.539 50.5223 176.881 50.4661 176.266 50.3535C175.66 50.2496 175.158 50.1155 174.76 49.951L176.007 45.8217C176.656 46.0208 177.24 46.129 177.759 46.1464C178.288 46.1637 178.742 46.0425 179.123 45.7828C179.512 45.5231 179.828 45.0816 180.071 44.4583L180.395 43.6143L173.241 23.0978H179.058L183.187 37.745H183.395L187.563 23.0978H193.42L185.667 45.1984C185.295 46.2719 184.789 47.2068 184.148 48.0032C183.516 48.8083 182.715 49.4273 181.746 49.8601C180.776 50.3016 179.608 50.5223 178.24 50.5223Z" fill="#545658"/>
</svg>
